<svg width="41" height="38" viewBox="0 0 41 38" fill="none" xmlns="http://www.w3.org/2000/svg">
<path d="M20.5 19.0001C18.6209 19.0001 17.0834 17.5751 17.0834 15.8334C17.0834 14.0917 18.6209 12.6667 20.5 12.6667C22.3792 12.6667 23.9167 14.0917 23.9167 15.8334C23.9167 17.5751 22.3792 19.0001 20.5 19.0001ZM30.75 16.1501C30.75 10.4026 26.223 6.33341 20.5 6.33341C14.7771 6.33341 10.25 10.4026 10.25 16.1501C10.25 19.8551 13.5813 24.7634 20.5 30.6217C27.4188 24.7634 30.75 19.8551 30.75 16.1501ZM20.5 3.16675C27.675 3.16675 34.1667 8.26508 34.1667 16.1501C34.1667 21.4067 29.6055 27.6292 20.5 34.8334C11.3946 27.6292 6.83337 21.4067 6.83337 16.1501C6.83337 8.26508 13.325 3.16675 20.5 3.16675Z" fill="white"/>
</svg>
