<svg width="40" height="40" viewBox="0 0 40 40" fill="none" xmlns="http://www.w3.org/2000/svg">
<path d="M36.6667 13.3334C36.6667 12.4167 35.9167 11.6667 35 11.6667H23.3333C22.4167 11.6667 21.6667 12.4167 21.6667 13.3334C21.6667 14.25 22.4167 15 23.3333 15H35C35.9167 15 36.6667 14.25 36.6667 13.3334ZM21.6667 26.6667C21.6667 27.5834 22.4167 28.3334 23.3333 28.3334H35C35.9167 28.3334 36.6667 27.5834 36.6667 26.6667C36.6667 25.75 35.9167 25 35 25H23.3333C22.4167 25 21.6667 25.75 21.6667 26.6667ZM17.45 7.7167C18.1 8.3667 18.1 9.4167 17.45 10.0667L10.4 17.15C9.75001 17.8 8.70001 17.8 8.03334 17.15L4.50001 13.6C4.18838 13.2884 4.01331 12.8657 4.01331 12.425C4.01331 12.2068 4.05629 11.9907 4.1398 11.7891C4.2233 11.5875 4.3457 11.4043 4.50001 11.25C4.65431 11.0957 4.83749 10.9733 5.0391 10.8898C5.24071 10.8063 5.45679 10.7633 5.67501 10.7633C6.11572 10.7633 6.53838 10.9384 6.85001 11.25L9.21667 13.6167L15.1167 7.7167C15.75 7.08337 16.8167 7.08337 17.45 7.7167ZM17.4667 21.0667C18.1167 21.7167 18.1167 22.7667 17.4667 23.4167L10.4167 30.5C9.76667 31.15 8.71667 31.15 8.05001 30.5L4.50001 26.9334C4.3457 26.7791 4.2233 26.5959 4.1398 26.3943C4.05629 26.1927 4.01331 25.9766 4.01331 25.7584C4.01331 25.5401 4.05629 25.3241 4.1398 25.1225C4.2233 24.9209 4.3457 24.7377 4.50001 24.5834C4.65431 24.4291 4.83749 24.3067 5.0391 24.2232C5.24071 24.1396 5.45679 24.0967 5.67501 24.0967C5.89322 24.0967 6.10931 24.1396 6.31091 24.2232C6.51252 24.3067 6.6957 24.4291 6.85001 24.5834L9.21667 26.95L15.1167 21.05C15.75 20.4167 16.8167 20.4167 17.4667 21.0667Z" fill="white"/>
</svg>
